<svg width="80" height="80" viewBox="0 0 80 80" fill="none" xmlns="http://www.w3.org/2000/svg">
<path d="M40 80C62.0914 80 80 62.0914 80 40C80 17.9086 62.0914 0 40 0C17.9086 0 0 17.9086 0 40C0 62.0914 17.9086 80 40 80Z" fill="#232323"/>
<g clip-path="url(#clip0)">
<path d="M27.9729 46.1939L26.4066 52.0415L20.6815 52.1626C18.9705 48.9891 18 45.3583 18 41.4999C18 37.7688 18.9074 34.2504 20.5158 31.1523H20.517L25.614 32.0868L27.8467 37.1532C27.3794 38.5156 27.1247 39.9781 27.1247 41.4999C27.1249 43.1515 27.4241 44.734 27.9729 46.1939Z" fill="white"/>
<path d="M62.607 37.2974C62.8654 38.6584 63.0001 40.0641 63.0001 41.5006C63.0001 43.1115 62.8307 44.6828 62.5081 46.1985C61.4128 51.3562 58.5508 55.8599 54.5862 59.047L54.5849 59.0457L48.165 58.7182L47.2564 53.0461C49.8872 51.5033 51.9431 49.0889 53.0261 46.1985H40.9948V37.2974H53.2016H62.607Z" fill="white"/>
<path d="M54.5847 59.0448L54.5859 59.046C50.7301 62.1453 45.8319 63.9997 40.4999 63.9997C31.9314 63.9997 24.4817 59.2105 20.6814 52.1625L27.9729 46.1938C29.873 51.265 34.7649 54.8749 40.4999 54.8749C42.965 54.8749 45.2744 54.2085 47.2561 53.0452L54.5847 59.0448Z" fill="white"/>
<path d="M54.8616 24.1799L47.5726 30.1473C45.5217 28.8654 43.0973 28.1248 40.5 28.1248C34.6351 28.1248 29.6517 31.9003 27.8468 37.1533L20.517 31.1525H20.5157C24.2604 23.9327 31.8041 19 40.5 19C45.9593 19 50.9649 20.9447 54.8616 24.1799Z" fill="white"/>
</g>
<defs>
<clipPath id="clip0">
<rect width="45" height="45" fill="white" transform="translate(18 19)"/>
</clipPath>
</defs>
</svg>
