<svg width="80" height="80" viewBox="0 0 80 80" fill="none" xmlns="http://www.w3.org/2000/svg">
<path d="M40 80C62.0914 80 80 62.0914 80 40C80 17.9086 62.0914 0 40 0C17.9086 0 0 17.9086 0 40C0 62.0914 17.9086 80 40 80Z" fill="#232323"/>
<path d="M64.5013 28.7458C62.7871 29.5059 60.9432 30.02 59.0095 30.2496C60.9839 29.0667 62.4991 27.1949 63.2143 24.961C61.3668 26.0569 59.3196 26.852 57.1427 27.2805C55.3986 25.423 52.9137 24.2622 50.1621 24.2622C44.8828 24.2622 40.601 28.544 40.601 33.8233C40.601 34.5727 40.6858 35.3022 40.8498 36.0024C32.9037 35.6038 25.8582 31.7976 21.1422 26.0113C20.3193 27.4231 19.8473 29.0667 19.8473 30.8186C19.8473 34.1349 21.5365 37.0627 24.1006 38.7768C22.534 38.7276 21.0587 38.2976 19.7703 37.5796C19.7696 37.6203 19.7696 37.6609 19.7696 37.7008C19.7696 42.3334 23.0667 46.1974 27.4397 47.0751C26.6383 47.2948 25.7919 47.411 24.9213 47.411C24.3038 47.411 23.7055 47.3518 23.1223 47.2406C24.3387 51.0382 27.869 53.8027 32.0538 53.8804C28.7809 56.4452 24.6589 57.9732 20.1781 57.9732C19.4081 57.9732 18.6451 57.9283 17.8986 57.8392C22.1276 60.553 27.1545 62.1352 32.5536 62.1352C50.14 62.1352 59.7575 47.5664 59.7575 34.9307C59.7575 34.5164 59.7482 34.1036 59.7296 33.6943C61.5992 32.3466 63.22 30.6631 64.5013 28.7458Z" fill="#F1F2F2"/>
</svg>
